<svg width="24" height="24" viewBox="0 0 24 24" fill="none" xmlns="http://www.w3.org/2000/svg">
<circle cx="8" cy="11" r="1" fill="#292D32"/>
<circle cx="12" cy="11" r="1" fill="#292D32"/>
<circle cx="16" cy="11" r="1" fill="#292D32"/>
<path d="M4 7.8V15C4 16.1046 4.89543 17 6 17H6.24257C6.66089 17 7 17.3391 7 17.7574C7 18.5821 7.0696 19.802 7.89389 19.7789C8.45312 19.7632 8.65302 19.0796 8.95715 18.6101L9.17235 18.2778C9.68844 17.481 10.5731 17 11.5224 17H17.2C18.7464 17 20 15.7466 20 14.2002V7.79978C20 6.25338 18.7468 5 17.2004 5H6.79958C5.25319 5 4 6.2536 4 7.8Z" stroke="#292D32" stroke-width="1.5" stroke-linecap="round"/>
</svg>
