<svg width="40" height="40" viewBox="0 0 40 40" fill="none" xmlns="http://www.w3.org/2000/svg">
<path d="M20 36.6668C13.2559 36.6706 7.17416 32.6099 4.59278 26.3794C2.0114 20.1489 3.43924 12.9768 8.21 8.21001C12.4222 3.99785 18.5615 2.35281 24.3154 3.89457C30.0694 5.43633 34.5637 9.93065 36.1054 15.6846C37.6472 21.4385 36.0022 27.5778 31.79 31.79C28.6691 34.925 24.4236 36.6811 20 36.6668ZM6.66667 20.2867C6.74553 27.6221 12.7352 33.5159 20.0709 33.4767C27.4066 33.4371 33.3326 27.4792 33.3326 20.1433C33.3326 12.8075 27.4066 6.84963 20.0709 6.81C12.7352 6.77077 6.74553 12.6646 6.66667 20V20.2867ZM15.6817 26.6667L13.3333 24.3167L17.65 20L13.3333 15.6833L15.6833 13.3333L20 17.65L24.3167 13.3333L26.6667 15.6833L22.35 20L26.6667 24.3167L24.3183 26.6667L20 22.35L15.6833 26.6667H15.6817Z" fill="#F2F2F2"/>
</svg>
