<svg width="24" height="24" viewBox="0 0 24 24" fill="none" xmlns="http://www.w3.org/2000/svg">
<path d="M11 3.94286V3C11 2.44772 11.4477 2 12 2V2C12.5523 2 13 2.44772 13 3V4" stroke="#2E2E2F" stroke-width="1.3"/>
<path d="M17.7285 15.5816C16.3173 13.2865 16.2097 11.0627 16.6792 8.64537C17.1333 6.30702 15.5491 4 13.1671 4H10.5658C8.48397 4.17556 6.92173 6.33894 7.25903 8.3896C7.80645 10.587 7.77768 12.232 6.29834 15.3831" stroke="#2E2E2F" stroke-width="1.3" stroke-linecap="round"/>
<ellipse cx="12" cy="16.5" rx="7" ry="1.5" stroke="#2E2E2F" stroke-width="1.3"/>
<path d="M14 21C14 21 13.6667 22 12 22C10.3333 22 10 21 10 21" stroke="#2E2E2F" stroke-width="1.2" stroke-linecap="round" stroke-linejoin="round"/>
</svg>
