<svg width="24" height="24" viewBox="0 0 24 24" fill="none" xmlns="http://www.w3.org/2000/svg">
<path d="M5.88361 15.6464V15.6464C4.7988 15.8544 3.75076 15.1436 3.54275 14.0588L2.52729 8.76309C2.23608 7.24436 3.23077 5.77718 4.74949 5.48597C6.33498 5.18195 8.31354 4.80256 9.85686 4.50663C11.4243 4.20608 13.447 3.85287 15.0509 3.57923C16.5465 3.32406 17.9659 4.31524 18.2516 5.80533C18.2955 6.03431 18.3402 6.26744 18.3849 6.50007" stroke="#2E2E2F" stroke-width="1.5" stroke-linecap="round"/>
<path d="M6 9.79989V16.9999C6 18.1045 6.89543 18.9999 8 18.9999H8.24257C8.66089 18.9999 9 19.339 9 19.7573C9 20.5819 9.0696 21.8019 9.89389 21.7788C10.4531 21.7631 10.653 21.0795 10.9572 20.6099L11.1723 20.2777C11.6884 19.4809 12.5731 18.9999 13.5224 18.9999H19.2C20.7464 18.9999 22 17.7465 22 16.2001V9.8665C22 8.35441 21.0116 7.03635 19.5 6.99988C17.8712 6.96058 15.6003 6.99989 14 6.99989H8.79958C7.25319 6.99989 6 8.25349 6 9.79989Z" stroke="#2E2E2F" stroke-width="1.5" stroke-linecap="round"/>
<circle cx="10" cy="13" r="1" fill="#2E2E2F"/>
<circle cx="14" cy="13" r="1" fill="#2E2E2F"/>
<circle cx="18" cy="13" r="1" fill="#2E2E2F"/>
</svg>
