<svg width="24" height="24" viewBox="0 0 24 24" fill="none" xmlns="http://www.w3.org/2000/svg">
<path d="M13 8C13 9.65685 11.6569 11 10 11C8.34315 11 7 9.65685 7 8C7 6.34315 8.34315 5 10 5C11.6569 5 13 6.34315 13 8Z" stroke="#3E4D5B" stroke-width="1.5"/>
<path d="M3 20.9998V17.5588C3 16.4817 3.61649 15.4971 4.62518 15.1196C5.98586 14.6103 7.85601 13.9829 10 13.9998C12.0957 14.0164 13.7051 14.6363 15.2416 15.1516C16.3165 15.5122 17 16.5363 17 17.6701V18.5025V19.335V20.9998" stroke="#3E4D5B" stroke-width="1.5" stroke-linecap="round"/>
<path d="M15 11C16.6569 11 18 9.65685 18 8C18 6.34315 16.6569 5 15 5" stroke="#3E4D5B" stroke-width="1.5" stroke-linecap="round"/>
<path d="M15.5 13.5C17.373 13.5 19.0843 14.4965 20.0845 15.2245C20.6967 15.6701 21 16.4007 21 17.158V21" stroke="#3E4D5B" stroke-width="1.5" stroke-linecap="round"/>
</svg>
