<svg width="24" height="24" viewBox="0 0 24 24" fill="none" xmlns="http://www.w3.org/2000/svg">
<path d="M9.80944 3.94391L4.8154 9.25007C4.29164 9.80657 4 10.542 4 11.3062V17.2981C4 18.8823 5.23176 20.1934 6.81287 20.2922L12 20.6164L17.1855 20.2923C18.7672 20.1935 19.9993 18.8813 19.9983 17.2964L19.9947 11.3114C19.9943 10.5479 19.7027 9.81318 19.1793 9.25713L14.1786 3.9439C12.9941 2.68536 10.9939 2.68537 9.80944 3.94391Z" stroke="#F5F5F5" stroke-width="1.5" stroke-linecap="round"/>
<path d="M9 17.1166V14.5181C9 14.1705 9.18051 13.8478 9.47674 13.6659L11.4767 12.4379C11.7977 12.2408 12.2023 12.2408 12.5233 12.4379L14.5233 13.6659C14.8195 13.8478 15 14.1705 15 14.5181V17.1166" stroke="#F5F5F5" stroke-width="1.5" stroke-linecap="round"/>
</svg>
