<svg width="24" height="24" viewBox="0 0 24 24" fill="none" xmlns="http://www.w3.org/2000/svg">
<path d="M4 11.5V8.5C4 7.11929 5.11929 6 6.5 6H7.5H8.375M18 8.75V8.5C18 7.11929 16.8807 6 15.5 6H14.5" stroke="#3E4D5B" stroke-width="1.5"/>
<path d="M7 8.5L8.38604 4.34189C8.4541 4.13771 8.64516 4 8.86038 4H14.3371C14.6693 4 14.9092 4.31795 14.8179 4.63736L14 7.5L13.5 9" stroke="#3E4D5B" stroke-width="1.5" stroke-linecap="round"/>
<path d="M14.5 20H6.8C5.2536 20 4 18.7464 4 17.2V11.8C4 10.2536 5.2536 9 6.8 9H17.2C18.7464 9 20 10.2536 20 11.8V17.2C20 18.7464 18.7464 20 17.2 20H15.512H14.2136" stroke="#3E4D5B" stroke-width="1.5"/>
<path d="M4 13H6.5C7.32843 13 8 13.6716 8 14.5V14.5C8 15.3284 7.32843 16 6.5 16H4V13Z" stroke="#3E4D5B" stroke-width="1.5"/>
</svg>
